<?xml version="1.0" encoding="UTF-8" standalone="no"?>
<!-- Created with Inkscape (http://www.inkscape.org/) -->

<svg
   version="1.1"
   id="svg1"
   width="819"
   height="408"
   viewBox="0 0 819 408"
   xmlns="http://www.w3.org/2000/svg"
   xmlns:svg="http://www.w3.org/2000/svg">
  <defs
     id="defs1" />
  <g
     id="g1"
     style="display:inline;opacity:1">
    <path
       style="fill:#000000"
       d="m 309.33857,269.55175 c -45.60818,-2.00607 -71.28353,-28.79531 -63.00453,-65.73789 12.45917,-55.5953 128.55072,-53.61898 138.99925,2.3663 7.35131,39.38978 -24.1425,65.65231 -75.99472,63.37159 z m 14.57114,-42.38031 c 17.05888,-4.29548 10.6879,-21.98888 -7.91769,-21.98888 -20.6947,0 -26.07286,15.74821 -7.65345,22.41065 2.65197,0.95924 10.98281,0.73359 15.57114,-0.42177 z m 248.92886,40.6932 c -8.95515,-1.48436 -16.45419,-3.55334 -24.25,-6.69054 l -5.25,-2.11272 v -18.9199 -18.91991 l 3.75,2.5615 c 12.31807,8.41408 49.67614,12.51303 56.04038,6.14879 2.79923,-2.79923 0.34898,-3.63819 -10.62563,-3.63819 -31.31118,0 -47.73284,-6.6942 -51.12674,-20.84154 -6.56779,-27.37762 28.80231,-46.31901 76.7514,-41.1019 10.6584,1.15969 13.50985,1.76762 26.46059,5.64141 l 8.75,2.61728 v 18.3627 18.3627 l -4.15276,-2.11858 c -17.23404,-8.79216 -53.34724,-11.10871 -53.34724,-3.42207 0,1.89831 0.88981,2.03404 17.5,2.66943 33.67572,1.28821 45.24068,8.40227 45.2807,27.85391 0.053,25.75601 -39.48966,41.22058 -85.7807,33.54763 z m -107.24933,-2.11611 c -6.32537,-1.70328 -11.92522,-4.46869 -16.0115,-7.90706 -4.06232,-3.41823 -4.23917,-3.31593 -4.23917,2.4522 v 5 h -27 -27 v -59 -59 h 27 27 v 35.86514 c 0,43.67785 -0.0581,43.5284 17.42819,44.85088 15.46865,1.16989 25.34218,-10.02542 16.3065,-18.48948 -6.80495,-6.37445 -27.39235,-5.4461 -31.67963,1.42854 -1.08478,1.73944 -1.12061,1.73057 -0.62669,-0.15508 5.95211,-22.72376 11.36339,-42.62441 11.674,-42.93262 0.2187,-0.217 3.91769,-0.88343 8.21999,-1.48096 44.17705,-6.13559 77.40151,22.5721 69.57256,60.11436 -5.96488,28.60345 -39.98849,47.50896 -70.64425,39.25408 z M 86.338565,206.29367 v -59 h 35.375875 35.37588 l 10.87412,32.19126 10.87413,32.19125 0.26385,-32.19125 0.26386,-32.19126 h 30.48614 30.48615 v 59.01232 59.01232 l -36.62579,-0.26232 -36.6258,-0.26232 -9.8234,-28 -9.8234,-28 -0.0508,28.25 -0.0508,28.25 h -30.5 -30.500005 z m 577.000005,10.5 v -48.5 h 27.5 27.5 v 15.03138 c 0,13.10689 -0.21339,15.11328 -1.66669,15.67096 -0.91668,0.35176 -12.72918,3.00403 -26.25,5.89393 l -24.58331,5.25437 26.25,0.0747 26.25,0.0747 v 27.5 27.5 h -27.5 -27.5 z"
       id="path1" />
  </g>
</svg>
